<?xml version="1.0" encoding="utf-8"?>
<!-- Generator: Adobe Illustrator 18.1.1, SVG Export Plug-In . SVG Version: 6.00 Build 0)  -->
<!DOCTYPE svg PUBLIC "-//W3C//DTD SVG 1.1//EN" "http://www.w3.org/Graphics/SVG/1.1/DTD/svg11.dtd">
<svg version="1.1" id="Layer_1" xmlns="http://www.w3.org/2000/svg" xmlns:xlink="http://www.w3.org/1999/xlink" x="0px" y="0px"
	 viewBox="0 0 48 48" enable-background="new 0 0 48 48" xml:space="preserve">
<path fill="#FFFFFF" d="M35.9,10.6c-0.3,0.5-3,4.1-9.4,6.5c-2.9-5.4-6.2-9.8-6.7-10.5c1.3-0.3,2.8-0.5,4.2-0.5
	C28.6,6.1,32.7,7.9,35.9,10.6L35.9,10.6z M25.3,24.2C16,27.2,11.1,35.3,10.7,36c-2.9-3.2-4.6-7.4-4.6-12c0-0.2,0-0.4,0-0.5
	c0.8,0,9.5,0.1,18.4-2.6c0.5,1,1,2,1.5,3C25.7,24,25.5,24.1,25.3,24.2L25.3,24.2z M24,0C10.7,0,0,10.7,0,24s10.7,24,24,24
	s24-10.7,24-24S37.3,0,24,0z M24,45C12.4,45,3,35.6,3,24S12.4,3,24,3s21,9.4,21,21S35.6,45,24,45z M29.1,22.3
	c-0.4-0.9-0.8-1.7-1.2-2.6c6.6-2.7,9.6-6.5,10-7.1c2.5,3.1,4,6.9,4.1,11.2c-0.6-0.1-6.5-1.4-12.5-0.6C29.3,22.9,29.2,22.6,29.1,22.3
	L29.1,22.3z M23,18.2c-8.4,2.2-15.8,2.2-16.6,2.2c1.2-5.6,4.9-10.2,9.9-12.6C16.8,8.4,20.1,12.9,23,18.2L23,18.2z M27.1,26.9
	c0,0,0.1,0,0.1,0c2.5,6.5,3.6,12,3.8,13.6c-2.2,0.9-4.5,1.4-7,1.4c-4.1,0-8-1.4-11-3.8C13.3,37.5,16.9,30.5,27.1,26.9L27.1,26.9z
	 M30.5,26.1c5.6-0.9,10.6,0.6,11.2,0.8c-0.8,5-3.7,9.3-7.7,12C33.8,37.8,32.9,32.6,30.5,26.1L30.5,26.1z"/>
</svg>
