<?xml version="1.0" encoding="utf-8"?>
<!-- Generator: Adobe Illustrator 18.1.1, SVG Export Plug-In . SVG Version: 6.00 Build 0)  -->
<!DOCTYPE svg PUBLIC "-//W3C//DTD SVG 1.1//EN" "http://www.w3.org/Graphics/SVG/1.1/DTD/svg11.dtd">
<svg version="1.1" id="Layer_1" xmlns="http://www.w3.org/2000/svg" xmlns:xlink="http://www.w3.org/1999/xlink" x="0px" y="0px"
	 viewBox="0 0 48 48" enable-background="new 0 0 48 48" xml:space="preserve">
<path fill="#FFFFFF" d="M43,0H5.6C2.7,0,0,1.9,0,4.8v37.5C0,45.2,2.7,48,5.6,48H43c2.9,0,5-2.8,5-5.7V4.8C48,1.9,46,0,43,0z
	 M24.3,14.3c5.1,0,9.2,4.1,9.2,9.2c0,5.1-4.1,9.2-9.2,9.2s-9.2-4.1-9.2-9.2S19.2,14.3,24.3,14.3z M42.7,40c0,1-0.9,2-1.9,2h-33
	C6.7,42,6,41.1,6,40.1V20h4.1c-0.3,1-0.4,2.3-0.4,3.6c0,8.1,6.6,14.7,14.7,14.7s14.7-6.6,14.7-14.7c0-1.2-0.2-2.6-0.4-3.6H43v20
	H42.7z M43,12.3c0,1.1-1.1,1.7-2.2,1.7h-5.1c-1.1,0-1.7-0.6-1.7-1.7v-5C34,6.1,34.6,5,35.7,5h5.1C41.9,5,43,6.1,43,7.2V12.3z"/>
</svg>
