<svg xmlns="http://www.w3.org/2000/svg" viewBox="0 0 440.8 440.8" enable-background="new 0 0 440.8 440.8">
  <path fill="#ed232f" d="M92.4 225c-13.4 9.4-22.6 24.4-22.6 43.7 0 19.2 4.6 33.5 11.7 43.9C93.2 329.4 112 336 130 336c28.9 0 60.2-16.7 60.2-67.3v-55.4h-54c-19.1 0-33.4 4.6-43.8 11.7zM220.4 0C98.7 0 0 98.7 0 220.4s98.7 220.4 220.4 220.4 220.4-98.7 220.4-220.4S342.1 0 220.4 0zM319 212.8v172.5h-18v-172h-92.8v55c0 62.7-40.2 84.9-78.2 84.9-37 0-75.9-20.9-78.1-79.7l1-14.4c5.1-33.1 29-63.8 83.8-63.8h53.5V72.1h-69.9V55.4h87.8v139.9h93.3v-69.8h17v70.3h70.3v17H319z"/>
</svg>
