<svg class="custom-icon" xmlns="http://www.w3.org/2000/svg" viewBox="0 0 100 100" style="height:100px;width:100px">
    <path class="inner-shape" d="M50 25c-13.806 0-25 11.08-25 24.75 0 10.135 6.156 18.841 14.965 22.67-.07-1.73-.013-3.804.434-5.684l3.217-13.486s-.8-1.58-.8-3.917c0-3.667 2.148-6.407 4.823-6.407 2.274 0 3.372 1.69 3.372 3.716 0 2.263-1.458 5.649-2.207 8.784-.627 2.625 1.33 4.766 3.946 4.766 4.738 0 7.928-6.022 7.928-13.158 0-5.425-3.69-9.485-10.403-9.485-7.584 0-12.31 5.598-12.31 11.852 0 2.156.643 3.677 1.65 4.854.462.54.526.76.358 1.38-.12.455-.395 1.552-.51 1.986-.166.627-.68.85-1.25.62-3.494-1.412-5.12-5.2-5.12-9.456 0-7.03 5.99-15.462 17.868-15.462 9.546 0 15.828 6.84 15.828 14.18 0 9.708-5.453 16.962-13.49 16.962-2.7 0-5.238-1.445-6.108-3.085 0 0-1.45 5.703-1.76 6.804-.53 1.908-1.566 3.816-2.515 5.302C45.163 74.143 47.54 74.5 50 74.5c13.806 0 25-11.08 25-24.75S63.806 25 50 25z" fill="#fff"/>
</svg>
