<svg xmlns="http://www.w3.org/2000/svg" viewBox="0 0 960 560" enable-background="new 0 0 960 560">
    <g>
        <path fill="#fff" d="M530.848 315.128c27.5 0 49.7 26.9 49.7 60 0 33.2-22.3 60-49.7 60s-49.7-26.8-49.7-60c0-33.1 22.2-60 49.7-60"/>
        <path stroke="#93c1f0" stroke-width="10" d="M530.848 315.128c27.5 0 49.7 26.9 49.7 60 0 33.2-22.3 60-49.7 60s-49.7-26.8-49.7-60c0-33.1 22.2-60 49.7-60z" fill="none"/>
        <path fill="#fff" d="M452.606 497.636c.7-2.2 1.2-4.5 1.2-6.9 0-15.3-15.3-27.8-34.3-27.8s-34.2 12.4-34.2 27.8c0 2.4.5 4.7 1.2 6.9h66.1z"/>
        <path stroke="#93c1f0" stroke-width="10" stroke-linecap="round" stroke-linejoin="round" d="M452.606 497.636c.7-2.2 1.2-4.5 1.2-6.9 0-15.3-15.3-27.8-34.3-27.8s-34.2 12.4-34.2 27.8c0 2.4.5 4.7 1.2 6.9h66.1z" fill="none"/>
        <path fill="#fff" d="M572.552 497.636c.7-2.2 1.2-4.5 1.2-6.9 0-15.3-15.3-27.8-34.3-27.8s-34.2 12.4-34.2 27.8c0 2.4.5 4.7 1.2 6.9h66.1z"/>
        <path stroke="#93c1f0" stroke-width="10" stroke-linecap="round" stroke-linejoin="round" d="M572.552 497.636c.7-2.2 1.2-4.5 1.2-6.9 0-15.3-15.3-27.8-34.3-27.8s-34.2 12.4-34.2 27.8c0 2.4.5 4.7 1.2 6.9h66.1z" fill="none"/>
        <path fill="#fff" d="M385.89 188.286c0 16.8-13.6 30.5-30.5 30.5-16.8 0-30.4-13.6-30.4-30.5s13.6-30.5 30.4-30.5c16.9 0 30.5 13.7 30.5 30.5"/>
        <path stroke="#93c1f0" stroke-width="10" d="M385.89 188.286c0 16.8-13.6 30.5-30.5 30.5-16.8 0-30.4-13.6-30.4-30.5s13.6-30.5 30.4-30.5c16.9 0 30.5 13.7 30.5 30.5z" fill="none"/>
        <path fill="#fff" d="M634.99 188.286c0 16.8-13.6 30.5-30.5 30.5-16.8 0-30.4-13.6-30.4-30.5s13.6-30.5 30.4-30.5c16.9 0 30.5 13.7 30.5 30.5"/>
        <path stroke="#93c1f0" stroke-width="10" d="M634.99 188.286c0 16.8-13.6 30.5-30.5 30.5-16.8 0-30.4-13.6-30.4-30.5s13.6-30.5 30.4-30.5c16.9 0 30.5 13.7 30.5 30.5z" fill="none"/>
        <path stroke="#fff" stroke-width="9" stroke-linecap="round" stroke-linejoin="round" d="M564.43 81.37l-60.9-14.3-22.4 70.8" fill="none"/>
        <path fill="#fff" d="M428.25 315.128c27.5 0 49.7 26.9 49.7 60 0 33.2-22.2 60-49.7 60-27.5 0-49.7-26.8-49.7-60 0-33.1 22.3-60 49.7-60"/>
        <path stroke="#93c1f0" stroke-width="10" d="M428.25 315.128c27.5 0 49.7 26.9 49.7 60 0 33.2-22.2 60-49.7 60-27.5 0-49.7-26.8-49.7-60 0-33.1 22.3-60 49.7-60z" fill="none"/>
        <path fill="#fff" d="M613.264 86.333c0 13.3-10.8 24-24 24-13.3 0-24-10.8-24-24 0-13.3 10.7-24 24-24s24 10.7 24 24"/>
        <path stroke="#93c1f0" stroke-width="10" d="M613.264 86.333c0 13.3-10.8 24-24 24-13.3 0-24-10.8-24-24 0-13.3 10.7-24 24-24s24 10.7 24 24z" fill="none"/>
        <path fill="#fff" d="M462.484 497.633h33.7c29.9-15.5 52.1-71.4 52.1-138.1 0-78.8-30.9-142.6-69-142.6s-69 63.9-69 142.6c.1 66.7 22.3 122.6 52.2 138.1"/>
        <path stroke="#93c1f0" stroke-width="10" d="M462.484 497.633h33.7c29.9-15.5 52.1-71.4 52.1-138.1 0-78.8-30.9-142.6-69-142.6s-69 63.9-69 142.6c.1 66.7 22.3 122.6 52.2 138.1z" fill="none"/>
        <path fill="#fff" d="M617.218 230.17c0 49.7-61.7 90-137.9 90s-137.9-40.3-137.9-90 61.7-90 137.9-90 137.9 40.3 137.9 90"/>
        <path stroke="#93c1f0" stroke-width="10" d="M617.218 230.17c0 49.7-61.7 90-137.9 90s-137.9-40.3-137.9-90 61.7-90 137.9-90 137.9 40.3 137.9 90z" fill="none"/>
        <path stroke="#93c1f0" stroke-width="10" stroke-linecap="round" stroke-linejoin="round" d="M443.06 497.636h74.3" fill="none"/>
        <path fill="#fff" d="M447.56 212.63c0 8.9-7.2 16.1-16.1 16.1-8.9 0-16.1-7.2-16.1-16.1 0-8.9 7.2-16.1 16.1-16.1 8.9-.1 16.1 7.2 16.1 16.1"/>
        <path fill="#93c1f0" stroke="#93c1f0" stroke-width="10" d="M447.56 212.63c0 8.9-7.2 16.1-16.1 16.1-8.9 0-16.1-7.2-16.1-16.1 0-8.9 7.2-16.1 16.1-16.1 8.9-.1 16.1 7.2 16.1 16.1z"/>
        <path fill="#fff" d="M544.783 212.63c0 8.9-7.2 16.1-16.1 16.1-8.9 0-16.1-7.2-16.1-16.1 0-8.9 7.2-16.1 16.1-16.1 8.9-.1 16.1 7.2 16.1 16.1"/>
        <path fill="#93c1f0" stroke="#93c1f0" stroke-width="10" d="M544.783 212.63c0 8.9-7.2 16.1-16.1 16.1-8.9 0-16.1-7.2-16.1-16.1 0-8.9 7.2-16.1 16.1-16.1 8.9-.1 16.1 7.2 16.1 16.1z"/>
        <path stroke="#93c1f0" stroke-width="10" stroke-linecap="round" d="M432.31 271.593c12 12 31.4 14.3 47.5 14.3" fill="none"/>
        <path stroke="#93c1f0" stroke-width="10" stroke-linecap="round" d="M527.665 271.593c-12 12-31.4 14.3-47.5 14.3" fill="none"/>
    </g>
</svg>
