<svg class="custom-icon" xmlns="http://www.w3.org/2000/svg" viewBox="0 0 100 100" style="height:100px;width:100px">
    <path class="inner-shape" d="M75 34.342c-1.84.82-3.817 1.375-5.891 1.625 2.116-1.278 3.743-3.3 4.51-5.71-1.983 1.183-4.178 2.042-6.515 2.505-1.87-2.006-4.537-3.26-7.487-3.26-5.665 0-10.26 4.62-10.26 10.32 0 .808.092 1.595.267 2.35-8.526-.43-16.084-4.537-21.144-10.78-.882 1.524-1.388 3.296-1.388 5.187 0 3.58 1.81 6.737 4.564 8.587-1.682-.053-3.264-.517-4.646-1.29v.13c0 5 3.535 9.17 8.228 10.117-.86.236-1.767.362-2.703.362-.66 0-1.303-.065-1.93-.185 1.306 4.1 5.094 7.084 9.583 7.167-3.51 2.767-7.934 4.417-12.74 4.417-.828 0-1.645-.05-2.447-.144 4.54 2.927 9.933 4.636 15.725 4.636 18.868 0 29.187-15.723 29.187-29.36 0-.446-.01-.89-.03-1.334 2.004-1.454 3.743-3.272 5.118-5.34z" fill="#fff"/>
</svg>
