<?xml version="1.0" encoding="utf-8"?>
<!-- Generator: Adobe Illustrator 18.1.1, SVG Export Plug-In . SVG Version: 6.00 Build 0)  -->
<!DOCTYPE svg PUBLIC "-//W3C//DTD SVG 1.1//EN" "http://www.w3.org/Graphics/SVG/1.1/DTD/svg11.dtd">
<svg version="1.1" id="Layer_1" xmlns="http://www.w3.org/2000/svg" xmlns:xlink="http://www.w3.org/1999/xlink" x="0px" y="0px"
	 viewBox="0 0 48 39" enable-background="new 0 0 48 39" xml:space="preserve">
<path fill="#FFFFFF" d="M48,4.6c-1.8,0.8-3.7,1.3-5.7,1.6c2-1.2,3.6-3.1,4.3-5.4c-1.9,1.1-4,1.9-6.3,2.4C38.6,1.2,36.1,0,33.2,0
	c-5.4,0-9.8,4.4-9.8,9.8c0,0.8,0.1,1.5,0.3,2.2C15.5,11.7,8.2,7.8,3.3,1.8C2.5,3.3,2,4.9,2,6.8c0,3.4,1.8,6.4,4.4,8.2
	C4.8,14.9,3,14.5,2,13.7c0,0,0,0.1,0,0.1c0,4.8,3.4,8.8,7.9,9.7c-0.8,0.2-1.7,0.3-2.6,0.3c-0.6,0-1.3-0.1-1.9-0.2
	c1.3,3.9,4.9,6.8,9.2,6.8c-3.4,2.6-7.6,4.2-12.2,4.2c-0.8,0-1.6,0-2.4-0.1C4.4,37.4,9.5,39,15.1,39c18.1,0,28-15,28-28
	c0-0.4,0-0.9,0-1.3C45,8.3,46.7,6.6,48,4.6z"/>
</svg>
