<?xml version="1.0" encoding="utf-8"?>
<!-- Generator: Adobe Illustrator 18.1.1, SVG Export Plug-In . SVG Version: 6.00 Build 0)  -->
<!DOCTYPE svg PUBLIC "-//W3C//DTD SVG 1.1//EN" "http://www.w3.org/Graphics/SVG/1.1/DTD/svg11.dtd">
<svg version="1.1" id="Layer_1" xmlns="http://www.w3.org/2000/svg" xmlns:xlink="http://www.w3.org/1999/xlink" x="0px" y="0px"
	 viewBox="0 0 48 41.9" enable-background="new 0 0 48 41.9" xml:space="preserve">
<path fill="#FFFFFF" d="M0,11.4L1.9,14c0,0,4-3.2,5.4-1.6c1.3,1.6,6.5,20.7,8.2,24.2c1.5,3.1,5.6,7.2,10.1,4.3
	c4.5-2.9,19.5-15.7,22.2-30.8c2.7-15.1-18-11.9-20.2,1.2c5.5-3.3,8.4,1.3,5.6,6.6c-2.8,5.2-5.4,8.7-6.7,8.7c-1.3,0-2.4-3.5-3.9-9.6
	C21,10.5,21-0.9,14.4,0.4C8.2,1.6,0,11.4,0,11.4L0,11.4z"/>
</svg>
